<?xml version="1.0" encoding="UTF-8"?>
<svg id="Layer_1" data-name="Layer 1" xmlns="http://www.w3.org/2000/svg" viewBox="0 0 2137.98 462.32">
  <defs>
    <style>
      .cls-1 {
        fill: #583f54;
      }

      .cls-2 {
        fill: #c8312a;
      }

      .cls-3 {
        fill: #231f20;
      }

      .cls-4 {
        fill: #8dba8c;
      }

      .cls-5 {
        fill: #2c9ca3;
      }

      .cls-6 {
        fill: #fbb032;
      }
    </style>
  </defs>
  <g>
    <polygon class="cls-1" points="1965.74 349.12 0 343.16 31.77 283.94 1997.51 289.9 1965.74 349.12"/>
    <polygon class="cls-5" points="2000.86 283.67 35.12 277.7 66.89 218.48 2032.63 224.45 2000.86 283.67"/>
    <polygon class="cls-4" points="2035.97 218.22 70.23 212.25 102.01 153.03 2067.75 159 2035.97 218.22"/>
    <polygon class="cls-6" points="2071.09 152.76 105.35 146.8 137.12 87.58 2102.86 93.54 2071.09 152.76"/>
    <polygon class="cls-2" points="2106.21 87.31 140.47 81.34 172.24 22.12 2137.98 28.09 2106.21 87.31"/>
  </g>
  <g>
    <path class="cls-3" d="M258.61,256.39h-93.32l-11.1,25.72c-3.64,8.57-5.46,15.65-5.46,21.24,0,7.4,2.99,12.86,8.96,16.37,3.51,2.08,12.14,3.64,25.91,4.68v7.21h-87.87v-7.21c9.48-1.43,17.27-5.36,23.38-11.79,6.1-6.43,13.64-19.71,22.6-39.84L236.21,61.95h3.7l95.27,216.64c9.09,20.52,16.56,33.45,22.4,38.77,4.41,4.03,10.65,6.37,18.7,7.01v7.21h-127.8v-7.21h5.26c10.26,0,17.47-1.43,21.63-4.29,2.86-2.08,4.29-5.06,4.29-8.96,0-2.34-.39-4.74-1.17-7.21-.26-1.17-2.21-6.04-5.84-14.61l-14.03-32.93ZM251.99,241.97l-39.35-90.98-40.52,90.98h79.88Z"/>
    <path class="cls-3" d="M568.19,61.37l2.14,88.06h-7.99c-3.77-22.08-13.02-39.84-27.76-53.28-14.74-13.44-30.68-20.16-47.83-20.16-13.25,0-23.74,3.54-31.46,10.62-7.73,7.08-11.59,15.23-11.59,24.45,0,5.84,1.36,11.04,4.09,15.59,3.77,6.11,9.8,12.15,18.12,18.12,6.1,4.29,20.19,11.88,42.28,22.79,30.91,15.2,51.76,29.55,62.54,43.06,10.65,13.51,15.98,28.96,15.98,46.37,0,22.08-8.61,41.08-25.81,56.99-17.21,15.91-39.06,23.87-65.56,23.87-8.31,0-16.17-.85-23.57-2.53-7.4-1.69-16.69-4.87-27.86-9.55-6.23-2.6-11.37-3.9-15.39-3.9-3.38,0-6.95,1.3-10.72,3.9-3.77,2.6-6.82,6.56-9.16,11.88h-7.21v-99.75h7.21c5.71,28.05,16.72,49.46,33.02,64.19,16.3,14.74,33.87,22.11,52.7,22.11,14.54,0,26.14-3.96,34.78-11.88,8.64-7.92,12.96-17.14,12.96-27.66,0-6.23-1.66-12.27-4.97-18.12-3.31-5.84-8.35-11.4-15.1-16.66-6.76-5.26-18.7-12.11-35.85-20.55-24.03-11.82-41.3-21.88-51.82-30.2-10.52-8.31-18.61-17.6-24.25-27.86-5.65-10.26-8.48-21.56-8.48-33.9,0-21.04,7.73-38.96,23.18-53.77,15.46-14.81,34.94-22.21,58.45-22.21,8.57,0,16.88,1.04,24.94,3.12,6.1,1.56,13.54,4.45,22.31,8.67,8.77,4.22,14.9,6.33,18.41,6.33s6.04-1.04,7.99-3.12c1.95-2.08,3.77-7.08,5.46-15h5.84Z"/>
    <path class="cls-3" d="M607.93,331.59v-7.21h8.77c7.66,0,13.54-1.2,17.63-3.6,4.09-2.4,7.11-5.68,9.06-9.84,1.17-2.73,1.75-10.91,1.75-24.55V112.61c0-13.51-.72-21.95-2.14-25.33-1.43-3.38-4.32-6.33-8.67-8.86-4.35-2.53-10.23-3.8-17.63-3.8h-8.77v-7.21h118.26c31.56,0,56.95,4.29,76.18,12.86,23.51,10.52,41.33,26.43,53.48,47.73,12.14,21.3,18.22,45.39,18.22,72.28,0,18.58-2.99,35.69-8.96,51.34-5.98,15.65-13.7,28.58-23.18,38.77-9.48,10.2-20.43,18.38-32.83,24.55-12.4,6.17-27.57,10.94-45.49,14.32-7.92,1.56-20.39,2.34-37.41,2.34h-118.26ZM708.66,82.41v206.12c0,10.91.52,17.6,1.56,20.07,1.04,2.47,2.79,4.35,5.26,5.65,3.51,1.95,8.57,2.92,15.2,2.92,21.69,0,38.25-7.4,49.68-22.21,15.59-20,23.38-51.04,23.38-93.13,0-33.9-5.33-60.98-15.98-81.24-8.44-15.84-19.29-26.62-32.54-32.34-9.35-4.02-24.87-5.97-46.56-5.84Z"/>
    <path class="cls-3" d="M1171.56,61.37l-19.68,85.53h-7.01l-.78-21.43c-.65-7.79-2.14-14.74-4.48-20.85-2.34-6.1-5.85-11.4-10.52-15.88-4.68-4.48-10.59-7.99-17.73-10.52-7.14-2.53-15.07-3.8-23.77-3.8-23.25,0-43.58,6.37-60.98,19.09-22.21,16.24-39.62,39.16-52.21,68.77-10.39,24.42-15.59,49.16-15.59,74.23s7.47,46.01,22.4,61.27c14.93,15.26,34.35,22.89,58.25,22.89,18.05,0,34.12-4.02,48.22-12.08,14.09-8.05,27.18-20.46,39.26-37.21h9.16c-14.29,22.73-30.13,39.45-47.54,50.17-17.41,10.71-38.25,16.07-62.54,16.07-21.56,0-40.65-4.52-57.28-13.54-16.63-9.03-29.29-21.72-37.99-38.09-8.7-16.37-13.05-33.96-13.05-52.8,0-28.83,7.73-56.89,23.18-84.16,15.45-27.28,36.66-48.71,63.61-64.29,26.95-15.59,54.13-23.38,81.53-23.38,12.86,0,27.28,3.05,43.25,9.16,7.01,2.6,12.08,3.9,15.2,3.9s5.84-.65,8.18-1.95c2.34-1.3,6.23-5,11.69-11.1h7.21Z"/>
    <path class="cls-3" d="M1344.17,155.27l-37.99,132.09-4.29,17.73c-.39,1.69-.58,3.12-.58,4.29,0,2.08.65,3.9,1.95,5.46,1.04,1.17,2.34,1.75,3.9,1.75,1.69,0,3.9-1.04,6.62-3.12,5.06-3.77,11.82-11.56,20.26-23.38l6.62,4.68c-8.96,13.51-18.19,23.8-27.66,30.88-9.48,7.08-18.25,10.62-26.3,10.62-5.59,0-9.77-1.4-12.57-4.19-2.79-2.79-4.19-6.85-4.19-12.18,0-6.36,1.43-14.74,4.29-25.13l4.09-14.61c-17.02,22.21-32.67,37.73-46.95,46.56-10.26,6.36-20.33,9.55-30.2,9.55s-17.67-3.93-24.55-11.79c-6.89-7.86-10.33-18.67-10.33-32.44,0-20.65,6.2-42.44,18.61-65.36,12.4-22.92,28.15-41.27,47.25-55.04,14.93-10.91,29.03-16.37,42.28-16.37,7.92,0,14.51,2.08,19.78,6.23,5.26,4.16,9.25,11.04,11.98,20.65l7.01-22.21,30.98-4.68ZM1274.82,165.41c-8.31,0-17.14,3.9-26.5,11.69-13.25,11.04-25.04,27.41-35.36,49.1-10.33,21.69-15.49,41.3-15.49,58.84,0,8.83,2.21,15.81,6.62,20.94,4.41,5.13,9.48,7.7,15.2,7.7,14.16,0,29.55-10.45,46.17-31.37,22.21-27.79,33.31-56.3,33.31-85.53,0-11.04-2.14-19.03-6.43-23.96-4.29-4.93-10.13-7.4-17.53-7.4Z"/>
    <path class="cls-3" d="M1510.55,289.12c-13.51,16.24-27.15,28.15-40.91,35.75-13.77,7.6-28.32,11.4-43.64,11.4-18.45,0-32.83-5.19-43.15-15.59-10.33-10.39-15.49-24.35-15.49-41.89,0-19.87,5.55-39.42,16.66-58.64,11.11-19.22,26.04-34.84,44.81-46.86,18.77-12.01,37.18-18.02,55.23-18.02,14.16,0,24.74,2.96,31.76,8.86,7.01,5.91,10.52,13.15,10.52,21.72,0,8.05-2.47,14.94-7.4,20.65-3.64,4.42-8.12,6.62-13.44,6.62-4.03,0-7.37-1.3-10.03-3.9-2.66-2.6-3.99-5.84-3.99-9.74,0-2.47.49-4.74,1.46-6.82.97-2.08,2.99-4.58,6.04-7.5,3.05-2.92,4.9-5.03,5.55-6.33.65-1.3.97-2.66.97-4.09,0-2.73-1.24-5-3.7-6.82-3.77-2.6-9.09-3.9-15.98-3.9-12.73,0-25.33,4.48-37.8,13.44s-23.12,21.69-31.95,38.19c-10.65,20-15.98,40.01-15.98,60.01,0,13.25,3.77,23.74,11.3,31.46,7.53,7.73,17.79,11.59,30.78,11.59,10,0,19.9-2.5,29.71-7.5,9.8-5,20.81-14.06,33.02-27.18l5.65,5.07Z"/>
    <path class="cls-3" d="M1650.63,54.55l-54.75,189.17c23.64-35.59,42.08-59.23,55.33-70.92s25.91-17.53,37.99-17.53c6.23,0,11.43,2.14,15.59,6.43,4.16,4.29,6.23,10,6.23,17.14,0,8.57-1.82,18.96-5.46,31.17l-23.77,81.63c-2.99,9.87-4.48,15.33-4.48,16.37,0,1.82.55,3.31,1.66,4.48,1.1,1.17,2.37,1.75,3.8,1.75,1.69,0,3.63-.84,5.84-2.53,7.4-5.71,14.74-13.64,22.02-23.77l6.04,3.7c-4.42,6.88-10.55,14.45-18.41,22.7-7.86,8.25-14.61,13.96-20.26,17.14-5.65,3.18-10.68,4.77-15.1,4.77-4.81,0-8.74-1.53-11.79-4.58-3.05-3.05-4.58-6.98-4.58-11.79,0-5.71,2.27-16.37,6.82-31.95l22.41-77.93c2.86-9.74,4.29-17.4,4.29-22.99,0-2.6-.81-4.68-2.44-6.23-1.62-1.56-3.74-2.34-6.33-2.34-3.77,0-8.05,1.43-12.86,4.29-8.83,5.46-19.03,15.59-30.59,30.39-3.12,4.03-13.51,20.26-31.17,48.71-5.46,9.09-9.94,19.03-13.44,29.81l-12.47,39.94h-29.22l64.1-222.88,6.82-24.16c0-3.38-1.4-6.36-4.19-8.96-2.79-2.6-6.2-3.9-10.23-3.9-2.34,0-5.91.39-10.71,1.17l-4.09.58v-7.6l67.41-11.3Z"/>
    <path class="cls-3" d="M1780.58,258.14c-.91,6.5-1.36,11.88-1.36,16.17,0,11.56,4.09,21.4,12.27,29.52,8.18,8.12,18.12,12.18,29.81,12.18,9.35,0,18.34-1.92,26.98-5.75,8.64-3.83,21.46-12.3,38.48-25.42l4.09,5.65c-30.78,30.52-60.14,45.78-88.06,45.78-18.96,0-33.25-5.97-42.86-17.92-9.61-11.95-14.42-25.13-14.42-39.55,0-19.35,5.97-39.16,17.92-59.42,11.95-20.26,26.95-36.01,45-47.25,18.05-11.23,36.63-16.85,55.72-16.85,13.76,0,23.96,2.79,30.59,8.38,6.62,5.59,9.94,12.21,9.94,19.87,0,10.78-4.29,21.11-12.86,30.98-11.3,12.86-27.93,23.25-49.88,31.17-14.55,5.33-35,9.48-61.37,12.47ZM1781.94,248.6c19.22-2.21,34.87-5.97,46.95-11.3,15.98-7.14,27.96-15.68,35.95-25.62,7.99-9.94,11.98-19.39,11.98-28.35,0-5.46-1.72-9.87-5.16-13.25-3.44-3.38-8.35-5.07-14.71-5.07-13.25,0-27.31,7.05-42.18,21.14-14.87,14.09-25.81,34.91-32.83,62.44Z"/>
  </g>
</svg>
